<svg width="1440" height="1232" viewBox="0 0 1440 1232" fill="none" xmlns="http://www.w3.org/2000/svg">
<path d="M1561.96 1186.39L1601.47 1163.53L1658.91 1130.29L1725.46 1168.76V1165.83L1690.11 1145.41L1661.43 1128.84L1687.02 1114.06L1718.96 1095.61L1725.46 1091.86V1088.93L1658.91 1127.25L1543.11 1060.37L1554.35 1053.86L1600.64 1027.14L1658.1 993.901L1725.39 1032.75V1029.82L1660.7 992.559L1718.15 959.324L1725.36 955.163V952.233L1715.6 957.845L1658.15 991.081L1647.2 984.784L1542.34 924.199L1588.58 897.479L1599.88 890.963L1649.75 862.381L1657.63 857.836L1725.67 897.123V894.193L1665.98 859.643L1660.04 856.221L1669.83 850.581L1717.58 822.985L1725.54 818.385V815.456L1715.03 821.535L1657.58 854.771L1541.79 787.86L1599.24 754.624L1656.7 721.388L1725.54 761.085V758.348L1659.3 720.02L1661.16 718.979L1674.84 711.012L1716.78 686.784L1720.18 684.84L1725.54 681.692V678.763L1656.78 718.487L1540.98 651.576L1598.43 618.341L1620.94 605.336L1655.94 585.105L1725.46 625.267V622.337L1658.48 583.653L1715.94 550.419L1725.36 544.943V542.068L1713.39 548.995L1655.94 582.231L1644.99 575.907L1540.32 515.265L1559.08 504.315L1597.78 482.029L1647.4 453.365L1655.31 448.793L1725.54 489.367V486.437L1663.76 450.847L1657.96 447.343L1688.27 429.821L1715.35 414.189L1725.54 408.303V405.183L1712.82 412.519L1698.59 420.732L1655.22 445.864L1539.5 378.955L1557.52 368.552L1597.03 345.747L1654.48 312.483L1725.46 353.549V350.62L1685.67 327.649L1657 311.224L1682.58 296.44L1714.54 277.988L1725.48 271.691V268.543L1654.51 309.608L1538.76 242.671L1550 236.156L1596.3 209.436L1653.75 176.2L1725.54 217.621V214.692L1656.35 174.721L1713.79 141.485L1725.46 134.751V131.821L1711.26 140.035L1653.8 173.271L1642.86 166.973L1538.02 106.36L1584.26 79.64L1595.55 73.124L1645.18 44.4333L1653.06 39.888L1725.54 81.748V78.8187L1661.54 41.8587L1655.6 38.328L1665.4 32.8533L1713.14 5.17333L1722.11 0H1717.03L1710.59 3.72267L1653.15 36.9587L1589.12 0H1584.1L1650.6 38.328L1640.28 44.296L1634.19 47.8L1593.15 71.564L1535.7 104.8L1432.47 45.364L1419.7 38L1477.15 4.764L1485.35 0H1480.3L1474.66 3.28533L1444.4 20.7787L1425.88 31.484L1417.2 36.5213L1414.47 35.0427H1414.31L1353.92 0H1348.82L1414.47 38L1379.46 58.2307L1357.02 71.18L1299.56 104.471L1294.51 101.541L1284.06 95.5187L1183.76 37.5613L1241.22 4.32533L1248.79 0H1243.7L1238.75 2.73733L1181.3 35.9733L1143.63 14.4267L1141.4 13.168L1139.19 11.8813L1118.73 0H1113.67L1178.7 37.5613L1139.3 60.2293L1121.16 70.7147L1102.75 81.3653L1082.23 93.192L1063.63 104.032L1057.99 100.776L1048.12 95.0813L947.848 37.124L1005.3 3.888L1012.11 0H1007.02L1002.84 2.436L945.304 35.5907L907.824 13.9347L905.608 12.7307L903.391 11.444L883.556 0H878.496L942.76 37.124L903.391 59.9013L885.225 70.3587L827.773 103.595L711.911 36.7133L769.364 3.47733L775.437 0H770.376L709.367 35.2347L648.44 0H643.352L706.877 36.7133L591.973 103.184L476.084 36.2747L533.536 3.04L538.788 0H533.7L530.964 1.58667L473.348 34.824L413.16 0H408.071L446.099 21.9013L470.885 36.22L462.021 41.34L413.379 69.5107L355.927 102.747L313.329 78.1067L246.001 39.2867L240.064 35.864L249.831 30.1147L297.571 2.73733L302.113 0H297.052L295.055 1.14933L237.603 34.3867L177.879 0H172.817L234.867 35.864L224.552 41.8053L218.479 45.336L177.441 69.1L119.989 102.336L16.9039 42.8173L4.12662 35.4267L61.6613 2.19067L65.4639 0H60.3759L59.1173 0.738667L28.8586 18.2053L10.3373 28.9107L1.58261 33.9747L-0.989395 32.4693H-1.1534L-57.1827 0H-62.2707L-0.934723 35.4267L-35.9521 55.6573L-58.468 68.6613L-115.921 101.897L-120.955 98.996L-131.488 93.0827L-199.664 53.576V56.5067L-140.269 90.8107L-119.587 102.747L-118.573 103.349L-119.613 103.951L-122.349 105.457L-176.053 136.612L-189.897 144.607L-199.664 150.245V153.312L-193.973 150.027L-175.972 139.624L-164.099 132.643L-116.003 104.827L-91.8454 118.789L-0.19606 171.737L-57.6481 204.973L-115.264 238.181L-199.664 189.451V192.38L-117.808 239.687L-136.959 250.803L-175.26 272.923L-199.664 286.968V289.897L-172.797 274.375L-171.896 273.853L-150.283 261.369L-117.453 242.371L-115.347 241.139L0.461273 308.048L-56.9907 341.284L-114.444 374.52L-142.321 358.395L-199.664 325.323V328.252L-172.825 343.748L-117.371 375.807L-117.069 375.971L-174.523 409.207L-199.664 423.716V426.645L-172.06 410.657L-150.42 398.201L-114.525 377.449L1.28128 444.359L-9.66139 450.601L-56.3614 477.595L-113.815 510.831L-129.299 501.879L-199.664 461.196V464.125L-139.723 498.757L-117.371 511.679L-116.331 512.281L-117.371 512.884L-173.837 545.517L-199.664 560.439V563.368L-171.321 546.941L-113.868 513.705L-100.189 521.644L1.88394 580.588L-55.5681 613.824L-113.021 647.06L-199.664 597.069V600.025L-115.592 648.592L-117.371 649.633L-173.099 681.828L-199.664 697.16V700.116L-170.583 683.307L-168.667 682.184L-159.365 676.709L-148.067 670.165L-115.236 651.167L-113.129 649.961L-57.4014 682.184L-55.6507 683.197L1.66527 716.324L2.78661 716.953L-54.6654 750.135L-112.119 783.371L-199.664 732.969V735.899L-115.155 784.712L-114.853 784.904L-172.307 818.14L-199.664 833.908V836.837L-169.844 819.617L-125.14 793.773L-112.309 786.355L3.4986 853.264L-31.5201 873.496L-54.0361 886.5L-111.569 919.873L-116.604 916.971L-127.083 910.92L-199.664 868.841V871.771L-135.837 908.648L-115.155 920.585L-114.141 921.187L-115.181 921.789L-117.917 923.295L-171.621 954.451L-185.465 962.444L-199.664 970.657V973.587L-189.541 967.756L-171.54 957.352L-159.667 950.508L-111.571 922.611L-87.4134 936.573L4.23727 989.52L-53.2161 1022.76L-110.668 1055.99L-199.664 1004.74V1007.67L-113.376 1057.55L-132.527 1068.67L-170.828 1090.79L-199.664 1107.38V1110.31L-168.367 1092.35L-167.463 1091.83L-145.849 1079.35L-113.02 1060.35L-110.913 1059.11L4.97594 1125.89L-52.4774 1159.12L-109.929 1192.36L-137.807 1176.23L-199.664 1140.59V1143.54L-168.393 1161.59L-112.939 1193.64L-112.637 1193.81L-170.091 1227.05L-178.653 1231.97H-173.592L-167.628 1228.52L-145.988 1216.04L-110.093 1195.29L-46.4587 1231.97H-41.5334L-107.549 1193.81L-96.6054 1187.46L-50.0974 1160.57L7.35594 1127.34L21.9653 1135.77L123.191 1194.25L103.411 1205.66L57.9959 1231.97H62.9746L68.4466 1228.96L97.2 1212.34L125.899 1195.73L188.604 1231.97H193.665L128.361 1194.25L146.389 1183.84L185.895 1161.01L243.348 1127.77L359.127 1194.69L317.625 1218.67L301.62 1227.89L294.672 1231.97H299.732L304.219 1229.37L361.672 1196.14L372.615 1202.46L423.775 1231.97H428.863L372.697 1199.53L364.297 1194.69L372.697 1189.84L421.941 1161.42L439.861 1151.07L479.476 1128.19L579.251 1185.84L595.256 1195.1L560.237 1215.33L537.721 1228.33L531.429 1231.97H536.517L540.265 1229.81L597.719 1196.57L638.92 1220.37L659 1231.97H664.061L616.951 1204.76L607.923 1199.53L600.263 1195.1L657.715 1161.86L715.167 1128.62L830.975 1195.53L806.051 1210.07L767.996 1231.97H773.057L776.093 1230.22L793.685 1220.06L833.6 1196.98L894.144 1231.97H899.233L883.201 1222.69L836.145 1195.53L893.597 1162.3L910.012 1152.85L951.187 1129.06L1011.21 1163.72L1057.97 1190.74L1066.97 1195.94L1009.57 1229.23L1004.75 1231.97H1009.81L1012.09 1230.66L1033.64 1218.28L1057.99 1204.19L1069.54 1197.53L1129.34 1231.97H1134.4L1119 1223.13L1102.59 1213.69L1071.92 1195.97L1129.37 1162.74L1145.79 1153.29L1186.82 1129.5L1246.84 1164.19L1302.3 1196.22L1302.63 1196.41L1245.18 1229.65L1241.1 1232H1246.19L1247.72 1231.1L1269.34 1218.61L1305.26 1197.86L1364.54 1231.97H1369.6L1307.99 1196.38L1318.94 1190L1365.44 1163.15L1422.9 1129.91L1437.51 1138.34L1538.74 1196.79L1518.98 1208.24L1477.94 1231.97H1483L1483.79 1231.51L1512.58 1214.89L1541.34 1198.27L1599.71 1231.97H1604.8L1543.92 1196.79L1561.96 1186.39ZM1655.71 992.559L1620.7 1012.79L1598.18 1025.79L1543.47 1057.47L1540.72 1059.03L1463.44 1014.43L1424.87 992.121L1482.32 958.885L1539.78 925.649L1655.71 992.559ZM1068.8 1058.26L953.019 991.355L990.089 969.945L1008.09 959.543L1019.94 952.671L1057.99 930.769L1068.06 924.965L1149.88 972.245L1183.87 991.875L1167.67 1001.21L1148.16 1012.49L1145.95 1013.78L1141.84 1016.13L1126.33 1025.11L1102.75 1038.8L1068.8 1058.26ZM68.0079 682.184L122.889 650.481L199.984 695.024L236.836 716.324L238.669 717.392L152.244 767.327L123.628 783.753L24.6733 726.617L7.95728 716.953L65.4093 683.717L68.1453 682.184H68.0079ZM1061.82 241.795L1042.67 252.937L1004.37 275.059L960.925 300.136L946.836 308.349L907.879 285.817L905.663 284.559L877.592 268.296L831.084 241.357L888.536 208.121L905.608 198.265L946.043 174.913L960.433 183.125L1057.99 239.605L1061.82 241.795ZM1068.06 921.872L1063.03 918.969L1052.55 912.919L952.28 854.961L1009.73 821.725L1054.44 795.909L1057.94 793.883L1067.27 788.408L1183.07 855.317L1143.63 878.151L1125.49 888.636L1102.64 901.832L1068.06 921.872ZM1062.59 378.107L1005.14 411.341L947.684 444.577L910.204 422.923L907.988 421.636L905.772 420.376L878.933 404.853L831.74 377.805L889.192 344.569L905.608 335.124L946.781 311.333L1006.83 345.883L1058.02 375.477L1062.59 378.107ZM1182.72 311.635L1242.74 346.321L1298.2 378.352L1298.52 378.544L1241.07 411.78L1183.62 445.016L1146.14 423.36L1143.92 422.073L1141.71 420.787L1114.68 405.183L1102.75 398.283L1067.65 377.996L1125.1 344.761L1141.52 335.316L1182.72 311.635ZM1067.32 785.56L951.515 718.679L951.897 718.459L972.115 706.769L1009.05 685.443L1010.96 684.32L1020.27 678.844L1031.56 672.301L1057.99 657.052L1066.58 652.097L1181.92 718.897L1182.31 719.089L1124.86 752.324L1102.75 765.109L1067.32 785.56ZM715.604 718.24L741.759 703.128L773.139 685.004L774.288 684.429L809.033 664.361L830.619 651.877L887.004 684.429L893.98 688.453L946.097 718.568L946.453 718.788L889.001 752.024L831.548 785.259L716.152 718.568L715.604 718.24ZM710.133 718.459L652.981 751.476L631.424 763.823L625.569 767.217L614.435 773.652L595.475 784.603L582.671 777.211L565.381 767.217L480.789 718.349L479.668 717.692L537.12 684.456L537.557 684.211L594.655 651.221L710.433 718.131L710.079 718.349L710.133 718.459ZM473.457 718.459L417.044 751.037L388.865 767.327L370.016 778.279L359.565 784.328L336.885 771.243L330.209 767.383L243.757 717.281L245.591 716.215L259.269 708.275L301.183 684.045L304.603 682.075L358.717 650.811L368.183 656.285L416.635 684.429L474.607 717.912L473.484 718.568L473.457 718.459ZM676.537 467.328L688.055 460.676L711.556 446.987L806.352 501.741H806.516L827.363 513.76L813.055 521.973L769.828 546.968L742.197 562.901L712.321 580.396L596.46 513.568L616.705 501.851L653.967 480.332L661.791 475.815L676.483 467.328H676.537ZM1063.27 514.417L1062.23 515.019L1005.79 547.544L948.341 580.779L907.905 557.427L832.533 513.869L853.517 501.741L890.04 480.661L930.229 457.472L947.465 447.535L1039.91 501.003L1057.99 511.46L1063.27 514.417ZM1068.36 514.417L1082.37 506.204L1089.35 502.18L1125.9 481.072L1166.19 457.773L1183.4 447.836L1275.79 501.221L1298.15 514.143L1299.22 514.773L1298.15 515.375L1241.71 548.091L1184.26 581.327L1143.63 557.947L1102.59 534.265L1068.36 514.417ZM1131.81 554.032L1181.63 582.777L1152.08 599.861L1143.63 604.68L1124.12 615.987L1102.75 628.361L1066.58 649.249L950.776 582.367L1008.23 549.131L1057.91 520.412L1065.76 515.896L1131.81 554.032ZM895.895 553.593L945.687 582.367L916.195 599.56L907.824 604.405L888.18 615.74L837.212 645.088L830.645 648.839L821.372 643.364L714.865 581.82L772.319 548.584L783.864 542.068L805.421 529.612L829.907 515.457L895.895 553.593ZM709.86 581.929L652.407 615.165L594.955 648.401L559.061 627.676L478.82 581.491L531.073 551.376L536.353 548.337L593.805 515.075L709.86 581.929ZM534.001 546.804L515.972 557.235L476.493 580.04L360.687 513.131L368.347 508.723L418.221 479.895L475.673 446.659L516.464 470.257L591.453 513.568L534.001 546.804ZM368.347 520.495L473.949 581.491L416.497 614.755L359.045 647.991L313.493 621.653L243.265 581.08L300.717 547.844L334.259 528.38L358.06 514.691L368.347 520.495ZM421.696 684.429L368.265 653.548L361.343 649.551L368.265 645.553L413.132 619.628L428.289 610.867L476.412 583.079L592.192 649.989L534.74 683.224L477.288 716.46L421.696 684.429ZM656.976 684.429L597.28 649.879L654.732 616.644L708.355 585.68L712.267 583.408L828.075 650.289L802.495 665.073L770.54 683.525L713.088 716.761L656.976 684.429ZM930.229 706.331L909.929 694.613L907.713 693.327L898.44 687.988L860.821 666.251L833.081 650.208L877.373 624.637L890.615 616.972L893.351 615.467L907.824 607.116L948.259 583.736L979.201 601.613L1057.99 647.141L1064.04 650.619L1062.26 651.659L1006.53 683.855L950.393 716.269L948.997 717.091L930.229 706.331ZM1160.04 703.183L1145.95 694.969L1143.74 693.711L1136.29 689.384L1102.75 670.029L1069.13 650.619L1113.53 625.131L1126.8 617.492L1129.4 615.987L1143.87 607.609L1184.31 584.256L1215.24 602.133L1300.06 651.167L1298.26 652.179L1242.44 684.429L1186.34 716.844L1184.91 717.665L1160.04 703.183ZM1187.8 718.815L1207.86 707.235L1244.99 685.771L1246.9 684.676L1256.2 679.2L1267.5 672.684L1300.34 653.685L1302.47 652.453L1358.06 684.593L1359.8 685.607L1417.26 718.733L1418.35 719.363L1360.9 752.599L1303.46 785.835L1187.4 719.089L1187.8 718.815ZM1186.71 582.696L1244.16 549.46L1301.62 516.224L1315.3 524.163L1417.56 583.133L1360.11 616.369L1302.66 649.605L1186.71 582.696ZM1286.27 504.343L1185.98 446.412L1243.43 413.176L1265.04 400.665L1300.96 379.94L1416.74 446.823L1405.8 453.065L1359.07 480.059L1301.62 513.295L1286.27 504.343ZM1180.91 446.412L1143.63 467.957L1141.4 469.245L1123.27 479.731L1102.64 491.639L1065.73 512.967L1050.22 503.987L949.955 446.056L1007.41 412.82L1029.05 400.336L1057.83 383.691L1064.94 379.584L1180.91 446.412ZM944.976 445.975L907.824 467.437L905.608 468.724L887.441 479.209L858.935 495.636L829.907 512.391L741.459 461.36L714.1 445.619L771.552 412.383L789.144 402.225L829.059 379.147L944.976 445.975ZM801.647 392.151L711.611 444.167L612.547 386.921L603.491 381.692L595.831 377.257L653.283 344.021L710.735 310.785L826.652 377.805L801.647 392.151ZM634.46 402.444L709.039 445.536L615.611 499.605L593.971 512.089L478.163 445.208L535.615 411.972L593.067 378.736L634.46 402.444ZM555.696 397.407L533.18 410.411L475.728 443.647L441.859 424.347L368.265 381.829L359.865 376.984L368.265 372.137L417.509 343.748L435.429 333.372L475.044 310.484L574.819 368.141L590.824 377.395L555.696 397.407ZM368.265 384.54L461.529 438.417L473.129 445.125L448.507 459.335L415.676 478.361L358.717 511.213L358.143 511.543L248.299 448.083L242.363 444.632L272.703 427.084L299.787 411.424L357.24 378.188L368.265 384.54ZM313.248 400.747L297.271 410L283.017 418.213L239.736 443.236L123.929 376.327L141.957 365.923L181.463 343.091L238.915 309.855L354.723 376.764L313.248 400.747ZM313.248 488.628L355.544 513.048L313.248 537.468L298.009 546.284L240.557 579.52L229.613 573.223L124.777 512.637L143.544 501.687L182.284 479.292L231.939 450.601L239.819 446.056L313.248 488.628ZM313.248 624.528L356.283 649.359L339.429 659.105L313.248 674.217L241.213 715.831L125.407 648.948L182.859 615.712L205.375 602.681L240.393 582.476L313.248 624.528ZM320.635 764.672L357.021 785.671L317.707 808.393L299.487 818.905L242.035 852.141L126.172 785.315L183.624 752.079L241.076 718.843L320.635 764.672ZM254.263 847.953L302.003 820.384L359.456 787.148L372.615 794.732L450.476 839.712L475.263 854.031L466.399 859.151L417.811 887.349L360.359 920.585L317.789 895.945L250.515 857.097L244.579 853.675L254.263 847.953ZM372.697 791.803L362.081 785.725L372.697 779.592L419.616 752.489L437.536 742.14L477.151 719.253L590.577 784.793L592.931 786.163L557.912 806.367L535.396 819.399L477.944 852.635L372.697 791.803ZM537.94 820.795L595.392 787.559L711.364 854.551L596.46 921.023L480.407 854.168L537.94 820.795ZM614.708 795.745L605.68 790.543L598.019 786.108L655.471 752.872L712.924 719.636L829.004 786.601L803.972 801.056L713.936 853.072L614.708 795.745ZM773.877 821.315L831.329 788.079L947.137 854.961L907.768 877.712L889.603 888.171L832.151 921.407L716.371 854.524L773.877 821.315ZM912.228 831.855L910.04 830.568L907.824 829.281L833.956 786.601L891.408 753.365L907.824 743.92L910.04 742.633L948.997 720.02L1057.99 782.987L1064.78 786.901L1007.33 820.137L949.873 853.373L912.228 831.855ZM1148.16 832.265L1145.95 831.007L1143.74 829.72L1102.7 806.039L1069.87 787.039L1127.32 753.803L1143.74 744.357L1145.95 743.071L1184.91 720.567L1300.39 787.285L1300.71 787.449L1243.26 820.685L1185.82 853.921L1148.16 832.265ZM1245.72 822.164L1290.43 796.347L1303.26 788.928L1419.04 855.837L1384.02 876.069L1361.51 889.101L1304.06 922.337L1298.99 919.408L1288.54 913.384L1188.24 855.427L1245.72 822.164ZM1419.02 852.881H1418.84L1305.78 787.559L1363.23 754.323L1420.68 721.087L1435.3 729.547L1500.07 766.972L1536.46 787.997L1479 821.233L1448.72 838.727L1430.2 849.432L1421.47 854.469L1419.02 852.881ZM1398.52 705.044L1305.04 651.167L1362.48 617.931L1419.94 584.695L1535.91 651.576L1478.46 684.812L1461.83 694.421L1420.92 718.048L1398.52 705.044ZM1304.3 514.745L1326.19 502.015L1333.76 497.635L1361.7 481.509L1411.24 452.873L1419.23 448.273L1535.02 515.156L1477.56 548.392L1420.11 581.628L1304.3 514.745ZM1418.16 444.632L1416.63 443.756L1303.56 378.435L1314.51 372.056L1361.02 345.199L1418.47 311.963L1433.07 320.395L1534.3 378.845L1514.55 390.289L1419.26 445.344L1418.16 444.632ZM1392.1 293.703L1302.82 242.233L1360.27 208.997L1417.72 175.761L1524.72 237.579L1533.54 242.671L1476.08 275.907L1418.63 309.143L1392.1 293.703ZM1416.08 310.484L1358.63 343.72L1301.18 376.956L1273.3 360.859L1185.23 310.184L1242.68 276.948L1243.59 276.427L1265.2 263.916L1298.03 244.916L1300.16 243.712L1416.08 310.484ZM1278.5 253.348L1240.2 275.469L1196.78 300.573L1182.67 308.787L1143.63 286.201L1141.4 284.915L1113.53 268.735L1102.75 262.52L1067.02 241.823L1124.47 208.587L1141.55 198.704L1181.92 175.213L1196.35 183.427L1297.74 242.015L1278.5 253.348ZM1180.18 310.184L1150.38 327.376L1122.64 343.419L1116.73 346.841L1102.75 354.917L1065.11 376.655L1037.23 360.529L949.38 309.745L1006.83 276.509L1007.74 275.989L1029.35 263.505L1062.18 244.505L1063.52 243.712L1064.29 243.273L1180.18 310.184ZM944.237 309.745L914.472 326.939L886.703 342.981L880.793 346.403L829.168 376.217L713.388 309.363L770.841 276.153L828.293 242.891L944.237 309.745ZM768.379 274.62L710.927 307.856L603.956 246.093L595.064 240.919L652.516 207.683L709.969 174.447L797.515 225.095L825.639 241.357L768.379 274.62ZM708.191 309.307L650.739 342.571L593.287 375.807L580.483 368.415L563.192 358.395L477.452 308.896L534.904 275.661L592.356 242.425L708.191 309.307ZM532.441 274.183L474.989 307.419L359.127 240.536L368.265 235.252L416.661 207.3L418.467 206.232L426.073 201.852L474.196 174.064L589.976 240.919L532.441 274.183ZM368.292 248.721L472.417 308.952L414.965 342.187L386.787 358.449L366.569 370.139L357.431 375.423L328.076 358.449L313.357 349.963L270.295 325.076L241.651 308.651L267.204 293.893L299.159 275.415L356.611 242.179L368.292 248.721ZM313.275 264.108L239.025 307.008L123.163 240.097L134.407 233.609L180.615 206.861L238.067 173.627L354.065 240.536L313.275 264.108ZM177.879 274.62L236.425 308.459L121.521 374.931L101.276 363.268L22.3199 317.712L5.52261 308.048L62.9746 274.812L78.46 265.86L120.509 241.576L177.879 274.62ZM237.164 444.769L179.712 478.005L173.639 481.509L122.177 511.241L16.0559 449.944L7.30127 444.907L6.34262 444.359L50.3626 418.871L63.8773 411.068L92.6306 394.451L121.412 377.805L237.164 444.769ZM237.903 581.08L202.912 601.312L180.369 614.316L146.199 634.055L122.861 647.552L45.6839 602.955L7.08128 580.643L64.616 547.544L122.068 514.308L237.903 581.08ZM239.38 853.703L229.093 859.643L223.02 863.175L181.983 886.939L124.531 920.175L21.3359 860.656L8.55862 853.264L66.012 820.028L123.464 786.792L239.38 853.703ZM240.119 990.013L205.237 1010.22L182.695 1023.22L127.977 1054.9L125.243 1056.49L47.8999 1011.86L9.29727 989.575L66.7506 956.339L124.203 923.104L240.119 990.013ZM231.72 982.211L126.884 921.625L173.092 894.932L184.391 888.389L234.073 859.643L241.952 855.071L337.131 910.072L338.225 910.701L357.76 921.981L317.707 945.115L300.225 955.217L242.773 988.453L231.72 982.211ZM302.715 956.749L360.167 923.515L372.588 930.687L440.517 969.836L476.084 990.424L418.632 1023.66L361.179 1056.9L245.399 989.985L302.715 956.749ZM362.903 922.063L372.779 916.368L420.437 888.827L477.889 855.591L537.585 890.087L593.724 922.611L536.272 955.847L487.684 983.936L478.764 989.083L362.903 922.063ZM509.433 974.08L538.761 957.133L596.213 923.897L711.993 990.807L666.168 1017.28L654.487 1024.04L597.035 1057.28L586.473 1051.28L481.145 990.451L509.433 974.08ZM598.757 922.611L656.209 889.375L678.725 876.371L703.676 861.971L713.744 856.139L808.54 910.893L829.552 923.021L772.1 956.257L714.647 989.493L598.757 922.611ZM774.616 957.763L795.792 945.497L799.129 943.581L832.123 924.417L913.979 971.671L947.931 991.3L931.735 1000.66L912.228 1011.91L910.04 1013.2L905.936 1015.58L890.396 1024.54L858.743 1042.85L832.861 1057.77L801.317 1039.57L717.081 990.889L774.616 957.763ZM910.04 966.579L834.668 923.049L855.679 910.92L892.201 889.759L910.04 879.464L949.736 856.523L1043.79 910.865L1057.99 919.079L1065.52 923.432L1064.48 924.035L1061.74 925.54L1007.9 956.668L994.029 964.661L950.256 989.904L910.04 966.579ZM1145.95 967.016L1102.75 942.048L1070.6 923.487L1091.59 911.359L1128.14 890.251L1145.95 879.929L1185.64 856.905L1279.74 911.249L1300.39 923.185L1301.43 923.76L1300.36 924.391L1297.76 925.896L1243.9 956.996L1230.04 964.991L1186.27 990.232L1145.95 967.016ZM1226 970.411L1244.03 960.008L1255.87 953.164L1304 925.348L1328.15 939.311L1419.78 992.231L1362.32 1025.47L1304.87 1058.7L1189.07 991.82L1226 970.411ZM1306.51 923.869L1352.83 897.123L1364.04 890.635L1402.95 868.157L1421.59 857.399L1518.59 913.467L1537.36 924.417L1479.91 957.653L1422.46 990.889L1306.51 923.869ZM1654.98 856.357L1644.66 862.327L1638.56 865.831L1597.52 889.593L1540.07 922.829L1436.91 863.203L1424.12 855.837L1481.58 822.601L1539.03 789.365L1654.98 856.357ZM1615.55 697.597L1652.48 718.897L1654.35 719.937L1567.67 769.873L1539.06 786.3L1439.99 729.055L1423.28 719.417L1480.74 686.181L1483.47 684.648L1538.35 652.945L1615.55 697.597ZM1653.5 583.653L1618.48 603.859L1595.96 616.889L1561.79 636.629L1538.43 650.125L1461.23 605.528L1422.68 583.133L1480.14 549.897L1537.58 516.661L1653.5 583.653ZM1652.76 447.343L1595.31 480.579L1589.23 484.083L1537.58 513.815L1431.51 452.517L1422.76 447.452L1421.8 446.905L1465.94 421.608L1479.42 413.805L1508.2 396.969L1536.95 380.543L1652.76 447.343ZM1593.44 277.193L1652.02 311.032L1536.95 377.504L1516.74 365.813L1437.88 320.313L1421.18 310.649L1478.63 277.413L1494.11 268.488L1536.16 244.177L1593.44 277.193ZM1651.28 174.721L1616.27 194.953L1593.75 208.067L1539.03 239.741L1536.3 241.303L1459 196.596L1420.43 174.283L1477.88 141.075L1535.34 107.812L1651.28 174.721ZM1348.4 79.1747L1359.62 72.6867L1398.52 50.2093L1417.2 39.4493L1514.22 95.5187L1532.99 106.469L1475.43 139.624L1417.98 172.86L1302.08 105.923L1348.4 79.1747ZM1323.78 121.363L1415.4 174.283L1357.95 207.547L1300.5 240.755L1184.5 173.872L1221.56 152.436L1239.6 142.033L1251.44 135.188L1299.56 107.401L1323.78 121.363ZM1087.16 93.384L1123.71 72.276L1141.52 61.9827L1181.22 39.04L1275.3 93.384L1295.95 105.32L1296.99 105.895L1295.92 106.524L1293.32 108.031L1239.38 139.159L1225.7 147.18L1181.92 172.476L1141.5 149.124L1102.72 126.701L1066.15 105.595L1087.16 93.384ZM1145.46 154.243L1179.43 173.872L1163.24 183.236L1143.63 194.377L1141.4 195.664L1137.31 198.019L1121.79 206.999L1102.64 217.949L1064.34 240.125L948.587 173.435L985.657 152.025L1003.66 141.623L1015.51 134.777L1063.63 106.963L1145.46 154.243ZM851.247 93.0827L887.769 71.9747L905.608 61.544L945.304 38.6013L1039.36 93.0813L1057.99 103.841L1061.03 105.621L1059.99 106.224L1057.25 107.729L1003.58 138.748L989.707 146.741L945.933 171.984L905.608 148.603L830.236 105.073L851.247 93.0827ZM909.547 153.969L943.499 173.571L927.303 182.935L907.824 194.187L905.608 195.473L901.504 197.855L885.964 206.807L854.311 225.123L828.429 240.043L796.885 221.755L712.649 173.024L770.103 139.788L791.277 127.523L794.615 125.607L827.609 106.443L909.547 153.969ZM651.832 71.564L674.348 58.532L699.299 44.132L709.367 38.3013L804.163 93.0533L825.175 105.181L767.723 138.417L710.269 171.653L594.325 104.635L651.832 71.564ZM707.561 173.024L661.736 199.497L650.055 206.26L592.603 239.496L582.124 233.445L476.713 172.476L504.919 156.187L534.247 139.24L591.7 106.004L707.561 173.024ZM368.265 98.5573L415.896 70.9893L473.348 37.7533L533.044 72.248L589.128 104.663L531.676 137.872L483.115 165.96L474.196 171.107L358.443 104.225L368.265 98.5573ZM368.265 112.877L436.031 152.025L471.597 172.613L414.144 205.849L356.692 239.085L240.803 172.175L298.255 138.939L355.708 105.703L368.265 112.877ZM168.551 77.12L179.849 70.5773L229.641 41.8853L237.52 37.3133L322.632 86.5933L333.821 93.0813L353.355 104.361L313.275 127.495L295.82 137.596L238.368 170.832L227.425 164.508L122.479 103.785L168.551 77.12ZM235.577 172.201L200.587 192.405L178.208 205.328L123.491 236.976L120.755 238.563L43.4679 194.048L4.86528 171.736L62.3186 138.5L119.771 105.264L235.577 172.201ZM-113.459 103.376L-67.1414 76.656L-55.9241 70.1947L-17.048 47.7187L1.58261 36.9587L98.5399 93.0827L117.308 104.033L59.856 137.269L2.40393 170.505L-113.459 103.376ZM-23.4774 291.24L-112.72 239.688L-55.2681 206.452L2.18527 173.217L109.484 235.035L118.265 240.099L60.8133 273.333L3.05994 306.624L-23.4774 291.24ZM1.14526 441.293L-111.981 375.972L-101.037 369.62L-54.5294 342.736L2.92393 309.5L17.5333 317.96L118.759 376.411L98.9786 387.827L3.79861 442.881L2.6226 442.197L1.14526 441.293ZM-111.241 512.283L-89.3561 499.58L-81.7507 495.2L-53.7081 479.101L-4.18939 450.493L3.79861 445.865L119.607 512.776L62.1533 546.012L4.70128 579.248L-111.241 512.283ZM-17.048 702.609L-110.504 648.592L-53.0521 615.356L4.40128 582.121L120.427 649.031L62.9746 682.267L46.3413 691.876L5.30394 715.503L-17.048 702.609ZM3.44261 850.309H3.27861L-109.765 784.905L-52.3134 751.669L5.13994 718.433L19.7493 726.865L84.5333 764.289L120.947 785.316L63.5493 818.579L33.2906 836.073L14.7693 846.777L6.01462 851.841L3.44261 850.309ZM-109.027 921.216L-62.7094 894.441L-51.4921 887.98L-12.6161 865.503L6.01462 854.744L103.055 910.785L121.823 921.736L64.3706 954.972L6.91728 988.208L-109.027 921.216ZM-19.1001 1109.08L-108.287 1057.5L-50.8361 1024.26L6.61728 991.028L113.643 1052.87L122.424 1057.94L64.972 1091.17L7.51994 1124.41L-19.1001 1109.08ZM125.899 1192.77L105.681 1181.11L26.7519 1135.52L10.0359 1125.89L67.4893 1092.65L82.9733 1083.7L125.105 1059.5L182.339 1092.35L240.803 1126.3L125.899 1192.77ZM127.677 1057.94L138.921 1051.45L185.211 1024.7L242.664 991.465L358.443 1058.38L317.652 1081.95L243.539 1124.85L127.677 1057.94ZM419.288 1159.97L391.109 1176.23L370.891 1187.92L361.753 1193.21L332.399 1176.23L317.707 1167.75L274.617 1142.86L245.973 1126.3L271.527 1111.54L303.481 1093.06L360.933 1059.83L372.615 1066.56L476.74 1126.79L419.288 1159.97ZM363.559 1058.38L372.697 1053.09L421.093 1025.14L422.899 1024.07L430.505 1019.69L478.628 991.904L594.408 1058.79L536.956 1092.02L479.367 1125.2L363.559 1058.38ZM655.225 1160.38L597.773 1193.62L584.969 1186.25L567.679 1176.23L481.965 1126.74L539.417 1093.5L596.871 1060.26L712.649 1127.15L655.225 1160.38ZM715.276 1125.7L608.388 1063.93L599.496 1058.79L656.948 1025.55L714.401 992.315L801.947 1042.96L830.072 1059.22L772.619 1092.46L715.276 1125.7ZM918.904 1144.86L891.135 1160.79L885.225 1164.22L833.6 1194.03L717.82 1127.12L775.273 1093.88L832.725 1060.65L948.532 1127.56L918.904 1144.86ZM951.213 1126.19L912.228 1103.68L910.04 1102.4L882.024 1086.25L835.516 1059.31L892.968 1026.07L910.067 1016.19L950.503 992.835L964.892 1001.05L1057.91 1054.84L1066.12 1059.61L1046.97 1070.75L1008.67 1092.84L965.221 1117.95L951.213 1126.19ZM1154.82 1145.35L1127.21 1161.26L1121.3 1164.68L1102.89 1175.3L1069.67 1194.47L1041.8 1178.34L953.867 1127.56L1011.32 1094.32L1012.22 1093.8L1033.83 1081.32L1058.05 1067.33L1068.85 1061.09L1184.66 1127.94L1154.82 1145.35ZM1148.16 1104.29L1145.95 1103L1117.96 1086.82L1102.75 1078.03L1071.34 1059.88L1128.8 1026.65L1145.87 1016.79L1186.3 993.409L1200.72 1001.62L1302.3 1060.07L1283.15 1071.19L1244.84 1093.31L1201.43 1118.39L1187.31 1126.6L1148.16 1104.29ZM1362.98 1161.92L1305.54 1195.15L1277.68 1178.81L1189.67 1127.94L1247.12 1094.71L1248.02 1094.16L1269.63 1081.67L1302.47 1062.67L1304.6 1061.47L1420.38 1128.35L1362.98 1161.92ZM1396.52 1111.9L1307.26 1060.32L1364.71 1027.08L1422.16 993.847L1529.38 1055.42L1538.16 1060.51L1480.71 1093.75L1423.26 1126.98L1396.52 1111.9ZM1521.16 1183.65L1442.32 1138.1L1425.6 1128.43L1483.06 1095.2L1498.54 1086.27L1540.59 1061.96L1597.78 1095.09L1656.35 1128.93L1541.27 1195.4L1521.16 1183.65Z" fill="#151515"/>
</svg>
